<svg width="26" height="29" viewBox="0 0 26 29" fill="none" xmlns="http://www.w3.org/2000/svg">
<path d="M0.333984 24.1568C0.333984 27.0201 6.81398 28.3235 12.834 28.3235C18.854 28.3235 25.334 27.0201 25.334 24.1568C25.334 21.8835 21.399 20.8568 18.564 20.4135L20.5007 18.4901C22.0158 16.9751 23.0477 15.0448 23.4658 12.9433C23.8838 10.8418 23.6694 8.66356 22.8494 6.68398C22.0295 4.70439 20.641 3.0124 18.8594 1.82198C17.0779 0.631557 14.9833 -0.00382996 12.8407 -0.00382996C10.698 -0.00382996 8.60343 0.631557 6.82188 1.82198C5.04033 3.0124 3.65179 4.70439 2.83187 6.68398C2.01195 8.66356 1.79746 10.8418 2.21554 12.9433C2.63362 15.0448 3.66549 16.9751 5.18065 18.4901L7.11065 20.4201C4.26898 20.8568 0.333984 21.8835 0.333984 24.1568ZM14.5007 6.65682C14.5007 6.50206 14.5437 6.35035 14.6251 6.21871C14.7065 6.08706 14.8229 5.98067 14.9613 5.91146C15.0997 5.84225 15.2547 5.81295 15.4088 5.82685C15.563 5.84075 15.7102 5.89729 15.834 5.99015C16.8659 6.76438 17.7228 7.74771 18.3486 8.87583C18.9744 10.004 19.3551 11.2515 19.4657 12.5368C19.5022 12.9317 19.3958 13.3265 19.1658 13.6496C18.9358 13.9726 18.5974 14.2023 18.2123 14.2968L16.1673 14.8085V16.6568C16.1673 16.8778 16.0795 17.0898 15.9232 17.2461C15.767 17.4024 15.555 17.4901 15.334 17.4901C15.113 17.4901 14.901 17.4024 14.7447 17.2461C14.5884 17.0898 14.5007 16.8778 14.5007 16.6568V6.65682ZM7.00065 8.32348V6.65682C7.00065 6.4358 7.08845 6.22384 7.24473 6.06756C7.40101 5.91128 7.61297 5.82348 7.83398 5.82348C8.055 5.82348 8.26696 5.91128 8.42324 6.06756C8.57952 6.22384 8.66732 6.4358 8.66732 6.65682V8.32348C8.67063 8.61089 8.74935 8.89239 8.89559 9.13983C9.04183 9.38727 9.25047 9.59198 9.50065 9.73348V6.65682C9.50065 6.4358 9.58845 6.22384 9.74473 6.06756C9.90101 5.91128 10.113 5.82348 10.334 5.82348C10.555 5.82348 10.767 5.91128 10.9232 6.06756C11.0795 6.22384 11.1673 6.4358 11.1673 6.65682V9.73348C11.4175 9.59198 11.6261 9.38727 11.7724 9.13983C11.9186 8.89239 11.9973 8.61089 12.0007 8.32348V6.65682C12.0007 6.4358 12.0884 6.22384 12.2447 6.06756C12.401 5.91128 12.613 5.82348 12.834 5.82348C13.055 5.82348 13.267 5.91128 13.4232 6.06756C13.5795 6.22384 13.6673 6.4358 13.6673 6.65682V8.32348C13.6646 9.06033 13.4177 9.77549 12.9654 10.3572C12.5131 10.9389 11.8808 11.3543 11.1673 11.5385V16.6568C11.1673 16.8778 11.0795 17.0898 10.9232 17.2461C10.767 17.4024 10.555 17.4901 10.334 17.4901C10.113 17.4901 9.90101 17.4024 9.74473 17.2461C9.58845 17.0898 9.50065 16.8778 9.50065 16.6568V11.5385C8.7872 11.3543 8.15489 10.9389 7.70257 10.3572C7.25025 9.77549 7.00341 9.06033 7.00065 8.32348ZM8.59065 21.9001L11.0657 24.3768C11.2978 24.6091 11.5735 24.7934 11.8769 24.9192C12.1803 25.0449 12.5055 25.1096 12.834 25.1096C13.1624 25.1096 13.4876 25.0449 13.7911 24.9192C14.0945 24.7934 14.3701 24.6091 14.6023 24.3768L17.0773 21.9001C21.6573 22.4301 23.6673 23.6368 23.6673 24.1568C23.6673 24.9035 19.9823 26.6568 12.834 26.6568C5.68565 26.6568 2.00065 24.9035 2.00065 24.1568C2.00065 23.6368 4.01065 22.4301 8.59065 21.9001Z" fill="white"/>
</svg>
